<?xml version="1.0" standalone="no"?>
<!DOCTYPE svg PUBLIC "-//W3C//DTD SVG 20010904//EN"
 "http://www.w3.org/TR/2001/REC-SVG-20010904/DTD/svg10.dtd">
<svg version="1.0" xmlns="http://www.w3.org/2000/svg"
 width="256.000000pt" height="256.000000pt" viewBox="0 0 256.000000 256.000000"
 preserveAspectRatio="xMidYMid meet">
<metadata>
Created by potrace 1.11, written by Peter Selinger 2001-2013
</metadata>
<g transform="translate(0.000000,256.000000) scale(0.100000,-0.100000)"
fill="#000000" stroke="none">
<path d="M1020 2534 c-504 -109 -890 -499 -995 -1002 -8 -40 -15 -78 -15 -83
0 -5 40 -9 88 -9 l88 0 27 108 c99 392 412 704 803 798 60 15 115 28 122 30 8
2 12 29 12 89 l0 85 -32 -1 c-18 -1 -62 -7 -98 -15z"/>
<path d="M1420 2460 c0 -82 2 -90 19 -90 10 0 63 -11 117 -26 386 -100 693
-409 791 -796 l27 -108 88 0 c48 0 88 4 88 9 0 5 -7 43 -15 83 -106 507 -496
897 -1003 1003 -119 24 -112 29 -112 -75z"/>
<path d="M1051 2099 c-120 -23 -205 -63 -274 -127 -85 -80 -129 -172 -142
-302 -20 -197 65 -360 231 -443 88 -44 133 -58 329 -102 187 -43 260 -74 286
-125 54 -100 -12 -211 -142 -239 -153 -33 -404 13 -609 113 -40 20 -75 36 -77
36 -1 0 -3 -79 -3 -175 l0 -174 98 -31 c183 -57 297 -74 502 -75 213 0 296 14
409 71 155 77 241 235 241 445 0 119 -46 253 -107 311 -83 79 -229 137 -463
183 -180 35 -250 59 -286 96 -25 27 -29 38 -29 90 0 57 2 63 37 94 50 47 120
65 244 65 142 0 278 -28 432 -89 29 -12 55 -21 57 -21 3 0 5 76 5 168 l0 169
-97 22 c-54 12 -143 28 -198 36 -108 16 -371 18 -444 4z"/>
<path d="M10 1111 c0 -26 33 -165 56 -236 140 -427 512 -756 962 -850 127 -26
122 -29 122 70 0 60 -4 87 -12 89 -7 2 -62 15 -123 30 -390 94 -702 405 -802
800 l-27 106 -88 0 c-48 0 -88 -4 -88 -9z"/>
<path d="M2347 1014 c-81 -318 -295 -580 -591 -724 -91 -44 -268 -100 -317
-100 -17 0 -19 -8 -19 -90 0 -104 -7 -99 112 -75 507 106 897 496 1003 1003 8
40 15 78 15 83 0 5 -40 9 -88 9 l-88 0 -27 -106z"/>
</g>
</svg>
